<?xml version="1.0" encoding="UTF-8"?>
<svg id="Capa_1" data-name="Capa 1" xmlns="http://www.w3.org/2000/svg" viewBox="0 0 288.87 512">
  <defs>
    <style>
      .cls-1 {
        fill: #fff;
        stroke-width: 0px;
      }
    </style>
  </defs>
  <path class="cls-1" d="m196.77,291.6v-48.24c51,6.3,85.35-34.66,85.35-77.69,0-36.29-24.9-66.87-58.52-75.56.2-2.4.32-4.82.32-7.26C223.91,37.17,186.74,0,141.06,0S58.2,37.17,58.2,82.85c0,2.45.12,4.87.32,7.26C24.9,98.8,0,129.38,0,165.67c0,43.02,33.43,80.32,85.35,77.69v212.93c0,30.72,24.99,55.71,55.71,55.71,27.54,0,50.46-20.08,54.91-46.37h92.9v-174.03h-92.1ZM141.06,30c29.14,0,52.85,23.71,52.85,52.85,0,37.09-36.17,69.91-52.87,83.08-5.96-4.7-14.42-11.93-22.9-21.09-24.74-26.73-29.93-48.46-29.93-61.98,0-29.14,23.71-52.85,52.85-52.85h0Zm-63.03,183.7c-26.48,0-48.03-21.54-48.03-48.03,0-22.22,15.18-40.96,35.7-46.42,12.86,31.52,39.24,56.15,54.84,68.71-8.05,15.28-24.08,25.73-42.52,25.73h0Zm88.74,242.59c0,14.18-11.53,25.71-25.71,25.71s-25.71-11.53-25.71-25.71v-222.11c10.14-5.55,18.93-13.27,25.71-22.55,6.78,9.28,15.57,17.01,25.71,22.55v222.11Zm-5.2-268.32c15.6-12.56,41.98-37.19,54.84-68.71,20.53,5.46,35.7,24.2,35.7,46.42,0,26.48-21.55,48.03-48.03,48.03-18.44,0-34.47-10.45-42.52-25.73Zm97.3,175.64h-30.5v30h30.5v42.01h-62.1v-114.03h62.1v42.01Z"/>
</svg>